# xmcd CD database file
# Copyright (C) 1995-1998 Ti Kan
#
# Track frame offsets:
#	150
#	46352
#	62869
#	94896
#	119230
#	139608
#	155886
#	167199
#	183639
#	210937
#	225205
#	240471
#	259127
#	279530
#	298452
#
# Disc length: 4254 seconds
#
# Revision: 1
# Processed by: cddbd v1.4PL0 Copyright (c) Steve Scherf et al.
# Submitted via: CDex 1.30Release
#
DISCID=e8109c0f
DTITLE=Various Artist - River City, Ohio 10th Annual Blues Competition 2002
DYEAR=2002
DGENRE=Blues
TTITLE0=Jill West and Blues Attack - Four Letter Word - Bye Bye Baby
TTITLE1=Bob Fox - Black Mountain
TTITLE2=Red house - Call the Plummer
TTITLE3=Zach Tyler and The Blu Razor Band - Oh I wonder
TTITLE4=Sammy Savage - Lynden Avenue Bles
TTITLE5=Dirty White Boys - Indecision
TTITLE6=Haywire Dog - Rails Got Rusty
TTITLE7=No Jive -- Austin
TTITLE8=The Royales - Keith Richard's Memorial
TTITLE9=Dennis Tarman and The Blues Cannibals - Not the Man
TTITLE10=Bill Dailey - Mean Old train
TTITLE11=The Curb Feelers - Unemployment Non-Compensation Blues
TTITLE12=Blues Rooster Cult - Come on Over
TTITLE13=Maumee Bay Blues Co. - Bind Faith
TTITLE14=Blues Rockets - Where The Two Roads Meet
EXTD=YEAR: 2002 ID3G:   0
EXTT0=
EXTT1=
EXTT2=
EXTT3=
EXTT4=
EXTT5=
EXTT6=
EXTT7=
EXTT8=
EXTT9=
EXTT10=
EXTT11=
EXTT12=
EXTT13=
EXTT14=
PLAYORDER=
